<?xml version="1.0" standalone="no"?>
<!DOCTYPE svg PUBLIC "-//W3C//DTD SVG 20010904//EN"
 "http://www.w3.org/TR/2001/REC-SVG-20010904/DTD/svg10.dtd">
<svg version="1.0" xmlns="http://www.w3.org/2000/svg"
 width="700.000000pt" height="700.000000pt" viewBox="0 0 700.000000 700.000000"
 preserveAspectRatio="xMidYMid meet">
<metadata>
Created by potrace 1.14, written by Peter Selinger 2001-2017
</metadata>
<g transform="translate(0.000000,700.000000) scale(0.100000,-0.100000)"
fill="#000000" stroke="none">
<path d="M4506 6238 c3 -4 -1 -8 -8 -9 -16 -1 -25 -3 -113 -24 -38 -9 -77 -18
-85 -20 -8 -1 -33 -8 -55 -14 -22 -5 -55 -13 -74 -16 -19 -3 -37 -8 -41 -10
-4 -2 -22 -7 -40 -10 -18 -3 -117 -26 -219 -50 -235 -56 -324 -77 -486 -115
-71 -17 -157 -37 -189 -45 -32 -8 -62 -12 -67 -10 -4 3 -10 1 -13 -4 -5 -8
-36 -16 -101 -27 -11 -2 -38 -8 -60 -14 -22 -6 -51 -13 -65 -16 -14 -2 -72
-16 -129 -30 -57 -14 -110 -23 -118 -20 -8 3 -12 2 -9 -2 3 -5 -23 -14 -57
-22 -80 -17 -72 -15 -142 -33 -33 -9 -71 -18 -85 -21 -14 -2 -45 -9 -70 -15
-75 -19 -94 -23 -115 -26 -11 -2 -20 -4 -20 -5 0 -1 -7 -3 -15 -5 -8 -2 -46
-10 -83 -19 -38 -9 -72 -14 -77 -11 -5 3 -10 1 -12 -5 -1 -5 -20 -11 -40 -12
-21 -2 -38 -7 -38 -12 0 -4 -9 -6 -20 -3 -11 3 -20 1 -20 -5 0 -6 -6 -8 -14
-5 -8 3 -17 3 -20 -1 -4 -3 -12 -7 -19 -8 -20 -4 -131 -30 -337 -79 -107 -26
-204 -48 -215 -51 -28 -6 -46 -10 -175 -40 -63 -15 -124 -27 -135 -28 -11 -1
-22 -3 -25 -7 -11 -11 -290 -70 -301 -63 -8 4 -9 3 -5 -4 5 -8 0 -12 -13 -12
-29 0 -27 1 -68 -14 -21 -7 -48 -12 -61 -11 -12 1 -22 -2 -22 -7 0 -4 -9 -8
-19 -8 -31 0 -33 -14 -14 -92 9 -40 17 -83 17 -95 0 -13 4 -23 9 -23 5 0 7
-11 5 -25 -3 -14 -2 -25 2 -25 10 0 42 -139 34 -151 -3 -5 -1 -9 4 -9 5 0 16
-37 26 -82 9 -46 19 -94 22 -108 3 -14 6 -35 7 -47 1 -13 5 -23 9 -23 4 0 10
-21 14 -47 3 -27 10 -55 14 -63 7 -14 17 -60 25 -117 2 -12 6 -26 9 -31 3 -6
13 -43 22 -83 15 -72 18 -85 30 -131 3 -13 7 -34 8 -48 2 -14 6 -32 10 -40 3
-8 7 -24 9 -35 2 -11 7 -27 10 -35 3 -8 9 -33 13 -55 4 -22 8 -44 10 -50 45
-186 54 -230 49 -248 -4 -15 -3 -18 3 -9 6 9 13 -5 22 -45 40 -170 54 -239 54
-265 1 -14 4 -24 9 -21 4 2 8 -3 8 -11 1 -9 2 -19 3 -23 1 -5 6 -26 11 -48 4
-22 10 -44 11 -50 5 -16 16 -69 19 -85 1 -8 5 -22 8 -30 4 -8 9 -26 11 -40 3
-14 10 -45 16 -69 6 -24 8 -51 6 -58 -3 -8 -1 -11 4 -8 8 5 16 -39 11 -67 0
-5 3 -8 7 -8 5 0 9 -6 10 -12 2 -23 9 -63 15 -78 13 -38 36 -153 32 -160 -3
-5 -1 -10 3 -12 7 -2 26 -73 48 -178 3 -14 9 -41 14 -60 5 -19 11 -48 14 -65
3 -16 10 -45 15 -63 5 -18 10 -35 10 -37 1 -3 1 -6 2 -7 0 -2 3 -14 5 -27 2
-14 11 -51 20 -83 8 -32 12 -63 9 -68 -3 -4 -1 -10 4 -12 5 -1 12 -16 15 -33
3 -16 9 -46 14 -65 5 -20 8 -43 6 -53 -1 -9 1 -15 6 -12 4 2 10 -12 13 -33 7
-42 11 -61 25 -117 23 -85 41 -179 36 -187 -2 -3 1 -8 7 -10 6 -2 12 -25 13
-50 0 -25 4 -44 9 -41 4 2 8 -5 8 -16 2 -21 5 -37 9 -46 3 -6 2 -4 15 -60 5
-22 9 -43 10 -47 2 -5 3 -14 4 -20 4 -36 16 -39 87 -22 38 9 76 17 84 19 8 2
55 13 104 25 48 12 95 19 103 16 8 -3 11 -1 8 4 -6 9 18 14 67 14 9 0 15 3 12
8 -3 4 1 8 8 9 7 0 23 2 36 5 12 2 30 5 40 7 9 2 37 9 61 16 24 7 52 10 62 8
11 -3 17 -2 14 2 -2 4 33 16 78 26 95 21 83 18 168 39 111 26 123 28 148 27
13 -1 30 -6 36 -11 7 -6 17 -10 21 -9 5 1 12 0 17 -1 4 -1 13 -3 20 -4 6 -1
11 -8 9 -16 -3 -12 -1 -12 9 -3 7 7 19 8 33 3 42 -17 61 -23 81 -27 11 -2 38
-10 60 -18 30 -10 230 -74 285 -91 3 -1 20 -5 38 -9 17 -4 32 -12 32 -17 0 -5
5 -6 10 -3 6 3 16 3 23 -2 6 -4 17 -8 23 -9 10 -2 174 -50 204 -60 8 -3 17 -6
20 -6 3 -1 42 -14 88 -29 45 -15 82 -25 82 -22 0 3 6 1 12 -4 7 -6 37 -16 66
-24 28 -7 52 -17 52 -21 0 -5 4 -7 9 -4 5 3 38 -5 75 -18 36 -13 66 -22 66
-20 0 2 17 -3 38 -10 20 -8 84 -29 142 -46 58 -17 113 -35 122 -40 10 -6 27
-10 38 -10 11 0 20 -5 20 -11 0 -5 5 -7 10 -4 14 8 80 -14 80 -26 0 -6 4 -8 9
-4 12 7 91 -17 91 -28 0 -5 4 -6 9 -2 5 3 45 -6 88 -21 43 -14 85 -27 93 -29
50 -11 70 -18 70 -25 0 -5 8 -8 18 -8 9 1 58 -11 107 -27 50 -15 100 -29 112
-32 13 -3 21 -9 18 -12 -2 -4 6 -7 18 -6 12 1 36 -4 52 -10 33 -14 83 -30 220
-70 50 -14 99 -30 110 -34 25 -11 99 -31 113 -31 5 0 16 23 23 50 7 28 17 50
21 50 5 0 7 4 3 10 -3 5 1 26 10 46 8 20 15 45 15 55 0 11 5 19 11 19 5 0 8 4
5 8 -8 13 16 82 25 76 5 -3 6 1 3 9 -3 8 4 39 14 70 11 31 17 58 14 61 -3 3 0
6 6 6 7 0 11 3 10 8 -4 17 15 82 24 82 5 0 7 4 3 9 -4 8 17 84 42 151 3 8 7
20 9 25 15 58 97 322 104 335 5 9 11 28 14 42 7 42 58 192 70 207 9 12 8 13
-3 6 -9 -5 -12 -4 -8 2 11 17 30 67 34 87 2 11 10 38 17 60 8 23 17 56 21 74
3 18 10 30 15 27 5 -3 7 3 6 12 -2 9 8 48 21 86 12 38 23 77 23 87 0 11 5 22
10 25 6 3 10 15 10 26 0 11 4 18 9 14 5 -3 13 0 17 6 4 8 3 9 -4 5 -17 -10
-15 12 7 72 11 28 17 52 14 52 -3 0 1 7 8 17 8 9 13 24 11 35 -2 10 2 18 8 18
6 0 8 5 5 10 -3 5 -3 16 2 22 4 7 8 15 8 18 4 31 31 110 37 110 5 0 7 4 3 10
-3 5 1 25 9 45 8 19 15 38 15 40 2 24 15 54 22 49 5 -3 6 2 3 10 -3 8 5 48 19
88 13 40 30 96 37 125 8 29 16 50 20 48 3 -2 6 4 7 13 0 9 4 28 8 42 3 14 8
32 10 40 2 8 4 16 5 18 3 2 3 2 15 47 4 17 10 35 14 40 3 6 6 12 6 15 3 25 30
110 35 110 4 0 7 6 7 14 0 14 19 81 54 188 11 32 19 63 19 69 0 7 8 21 18 32
9 11 12 17 5 14 -6 -4 3 37 20 90 18 54 35 99 39 101 4 2 4 10 1 18 -3 8 0 21
7 29 7 8 10 15 6 15 -4 0 0 13 9 30 8 16 15 33 15 37 1 7 19 75 25 93 1 3 6
20 10 38 4 17 12 32 17 32 5 0 7 4 4 8 -6 11 15 83 23 78 3 -2 7 6 7 17 2 33
11 67 44 167 17 51 30 93 30 95 0 3 -69 26 -270 87 -57 17 -123 39 -170 55 -8
3 -22 7 -30 8 -8 1 -42 11 -75 23 -33 11 -107 35 -165 52 -58 18 -132 41 -165
52 -33 11 -69 21 -80 24 -47 10 -95 31 -88 39 5 4 2 5 -5 1 -10 -6 -156 34
-272 74 -14 5 -72 23 -130 40 -58 17 -112 34 -120 37 -8 4 -18 7 -22 8 -5 2
-9 3 -10 5 -2 1 -10 3 -19 5 -30 5 -194 58 -201 64 -8 7 -20 71 -22 118 0 17
-4 29 -8 27 -3 -2 -14 28 -23 68 -9 40 -19 82 -21 93 -3 11 -7 31 -10 45 -3
14 -9 39 -14 55 -5 17 -18 75 -30 130 -11 55 -25 110 -31 123 -7 18 -6 22 3
16 10 -6 10 -4 2 7 -9 11 -59 201 -80 303 -2 10 -6 21 -9 24 -2 3 1 12 7 21 7
9 8 12 3 8 -10 -8 -35 63 -35 99 0 17 -7 23 -34 26 -19 2 -32 0 -30 -4z"/>
<path d="M1630 1121 c0 -6 4 -13 10 -16 6 -3 7 1 4 9 -7 18 -14 21 -14 7z"/>
</g>
</svg>
